<svg width="453" height="480" viewBox="0 0 453 480" fill="none" xmlns="http://www.w3.org/2000/svg">
<path d="M452.241 75.9124V347.119C427.873 358.47 404.53 374.102 381.545 387.627C268.765 453.937 128.47 473.941 -1 447.797V220.521C16.1673 217.372 33.0485 211.844 48.8567 204.889C85.1703 188.917 117.383 165.854 150.954 145.17C199.953 114.97 252.838 89.3923 309.657 76.592C356.342 66.08 405.984 64.6074 452.241 75.9124Z" fill="#ED8936" fill-opacity="0.1"/>
<path d="M88.7592 113.196C90.6786 106.506 91.401 98.9821 87.7911 92.9558C83.2442 85.3686 72.6934 82.3713 63.7283 84.2924C54.7655 86.2113 47.2834 92.1221 41.3798 98.8122C35.2449 105.765 30.3355 113.971 28.943 122.947C27.5482 131.923 30.078 141.719 36.9425 148.026C59.6248 168.86 83.628 131.085 88.7592 113.196Z" fill="#ED8936" fill-opacity="0.2"/>
<path d="M406.943 10.0492C411.829 5.4864 417.503 0.608707 424.351 0.746902C432.227 0.905491 438.486 8.39761 438.595 15.8761C438.705 23.3592 433.86 30.2917 427.584 34.8114C419.215 40.8355 408.08 43.2506 397.789 41.2682C372.134 36.3294 399.003 17.4665 406.943 10.0492Z" fill="#ED8936" fill-opacity="0.2"/>
<path d="M267.331 464.884C268.138 462.413 268.442 459.634 266.923 457.408C265.009 454.606 260.569 453.499 256.796 454.209C253.024 454.917 249.875 457.1 247.39 459.571C244.808 462.139 242.742 465.17 242.156 468.485C241.568 471.8 242.633 475.418 245.522 477.747C255.069 485.441 265.171 471.49 267.331 464.884Z" fill="#ED8936" fill-opacity="0.2"/>
</svg>
