<svg width="393" height="390" viewBox="0 0 393 390" fill="none" xmlns="http://www.w3.org/2000/svg">
<path d="M392.847 201.527C388.653 295.213 314.677 367.031 246 384.011C183.011 399.578 116.39 378.671 61.5903 336.772C41.173 321.177 21.3423 302.361 0 289.421V24.1558C20.9813 41.5312 42.0303 58.7089 64.8187 71.7617C125.031 106.287 196.031 107.614 258.115 79.3052C323.631 49.4138 396.795 112.982 392.847 201.527Z" fill="#38B2AC" fill-opacity="0.1"/>
<path d="M94.5198 55.5782C103.615 58.5474 114.66 59.0009 121.002 50.4253C127.311 41.8875 125.736 27.5652 119.685 18.7467C113.634 9.9255 104.346 5.58508 95.2354 2.90201C89.6461 1.25545 83.8621 0.0947685 78.1634 0.999023C67.6677 2.66447 55.7494 15.4239 60.0388 29.7003C64.3653 44.0982 83.7942 52.0773 94.5198 55.5782Z" fill="#38B2AC" fill-opacity="0.2"/>
</svg>
