<svg width="378" height="375" viewBox="0 0 378 375" fill="none" xmlns="http://www.w3.org/2000/svg">
<path d="M317.898 99.0018C338.197 115.287 357.237 134.521 378 149.903V375C362.273 366.917 346.966 357.835 332.189 347.778C313.878 335.297 295.788 321.246 276.858 309.763C249.314 293.073 215.961 291.979 187.313 306.387C171.608 314.256 155.307 321.27 139.912 326.476C97.414 340.86 34.0872 339.742 9.12761 292.217C-3.35221 268.419 -1.29803 238.867 4.9971 212.43C5.57139 209.981 6.18986 207.556 6.83042 205.131C24.258 139.846 67.2857 73.4204 129.376 52.7129C193.74 31.2682 265.66 57.0636 317.898 99.0018Z" fill="#0BC5EA" fill-opacity="0.1"/>
<mask id="mask0_0_1" style="mask-type:luminance" maskUnits="userSpaceOnUse" x="6" y="0" width="106" height="131">
<path d="M6 38L67 0L112 38L67 103.5L6 131V38Z" fill="white"/>
</mask>
<g mask="url(#mask0_0_1)">
<path d="M72.0699 64.22C77.846 54.0089 82.1635 40.4367 74.1766 31.6696C67.0892 23.8879 53.4195 24.6881 44.5548 30.6061C35.6924 36.5263 30.4798 46.0914 25.6205 55.2843C20.3407 65.2794 14.9569 75.7537 15.0003 86.9357C15.0544 101.074 24.4696 113.617 37.9638 106.955C51.9543 100.045 64.9045 76.8851 72.0699 64.22Z" fill="#0BC5EA" fill-opacity="0.2"/>
</g>
</svg>
