<svg width="16" height="11" viewBox="0 0 11 11" fill="none" xmlns="http://www.w3.org/2000/svg">
<path d="M3.68623 3.09191C3.68623 3.37121 3.68623 3.64191 3.77432 3.89542C2.84834 4.98253 0.403418 7.85499 0.175684 8.07413C0.130422 8.11474 0.0942141 8.16443 0.0694141 8.21995C0.0446141 8.27547 0.0317773 8.33559 0.0317383 8.3964C0.0317383 8.57902 0.143457 8.75519 0.237988 8.85402C0.379785 9.00226 0.985644 9.563 1.09736 9.45558C1.42822 9.13331 1.49482 9.04738 1.63018 8.91417C1.83428 8.71437 1.60869 8.30617 1.67959 8.14074C1.75049 7.97531 1.82568 7.94308 1.94814 7.9173C2.07061 7.89152 2.2876 7.9796 2.45732 7.98175C2.63564 7.9839 2.73232 7.9087 2.86553 7.7841C2.97295 7.68527 3.05029 7.59288 3.05244 7.44894C3.05674 7.25558 2.77744 6.99992 2.98584 6.79581C3.19424 6.59171 3.49502 6.92902 3.71631 6.90324C3.9376 6.87746 4.20615 6.57023 4.23408 6.43917C4.26201 6.30812 3.98271 5.97081 4.02568 5.7796C4.04072 5.71515 4.17178 5.56476 4.27061 5.54328C4.36943 5.52179 4.80771 5.69152 4.90654 5.67003C5.02685 5.64425 5.1665 5.51749 5.28037 5.4466C5.61338 5.59054 5.91631 5.64855 6.30518 5.64855C7.77685 5.64855 8.96924 4.50128 8.96924 3.08761C8.96924 1.67394 7.77685 0.531616 6.30518 0.531616C4.8335 0.531616 3.68623 1.67824 3.68623 3.09191ZM7.59424 2.59412C7.59424 2.73009 7.55392 2.86301 7.47837 2.97607C7.40283 3.08913 7.29546 3.17725 7.16983 3.22928C7.04421 3.28132 6.90598 3.29493 6.77261 3.26841C6.63925 3.24188 6.51675 3.1764 6.4206 3.08025C6.32445 2.9841 6.25898 2.8616 6.23245 2.72824C6.20592 2.59488 6.21954 2.45665 6.27157 2.33102C6.32361 2.2054 6.41172 2.09802 6.52478 2.02248C6.63784 1.94694 6.77076 1.90662 6.90674 1.90662C7.08907 1.90662 7.26394 1.97905 7.39287 2.10798C7.5218 2.23691 7.59424 2.41178 7.59424 2.59412Z" fill="white"/>
</svg>
