<svg width="12" height="12" viewBox="0 0 12 12" fill="none" xmlns="http://www.w3.org/2000/svg">
<path d="M10.7037 9.87437L8.49843 7.66914C9.02936 6.96234 9.31596 6.10203 9.315 5.21804C9.315 2.96008 7.47797 1.12305 5.22 1.12305C2.96203 1.12305 1.125 2.96008 1.125 5.21804C1.125 7.47601 2.96203 9.31304 5.22 9.31304C6.10398 9.31401 6.9643 9.0274 7.67109 8.49648L9.87632 10.7017C9.98795 10.8015 10.1335 10.8548 10.2832 10.8506C10.4329 10.8464 10.5753 10.7851 10.6811 10.6792C10.787 10.5733 10.8483 10.4309 10.8525 10.2813C10.8567 10.1316 10.8035 9.986 10.7037 9.87437ZM2.295 5.21804C2.295 4.63953 2.46655 4.07402 2.78795 3.593C3.10935 3.11199 3.56618 2.73708 4.10065 2.5157C4.63512 2.29431 5.22324 2.23639 5.79064 2.34925C6.35803 2.46211 6.87922 2.74069 7.28828 3.14976C7.69735 3.55883 7.97593 4.08001 8.08879 4.64741C8.20166 5.2148 8.14373 5.80292 7.92234 6.33739C7.70096 6.87187 7.32605 7.32869 6.84504 7.65009C6.36403 7.9715 5.79851 8.14304 5.22 8.14304C4.44453 8.14211 3.70108 7.83365 3.15274 7.2853C2.6044 6.73696 2.29593 5.99352 2.295 5.21804Z" fill="white"/>
</svg>
